<svg width="73" height="73" viewBox="0 0 73 73" fill="none" xmlns="http://www.w3.org/2000/svg">
<g clip-path="url(#clip0_1_488)">
<path d="M33.3022 0.14878C20.8208 1.32756 10.076 8.54329 4.20263 19.7032C3.39446 21.2409 2.15637 24.2112 1.77348 25.5683C1.69873 25.8228 1.57731 26.2468 1.49313 26.5108C1.1381 27.7266 0.821257 29.0269 0.672923 29.8372C0.608039 30.1952 0.542683 30.4308 0.513995 30.3555C0.485306 30.2803 0.392424 30.742 0.309733 31.3919C-0.41664 36.9584 0.134585 42.4352 1.96337 47.8129C5.55403 58.3989 14.0492 66.8005 24.8645 70.4859C28.5991 71.7515 32.3499 72.3392 36.6097 72.3224C42.1284 72.3102 46.5455 71.3608 51.5635 69.1288C57.4981 66.4883 62.754 62.1278 66.5856 56.6432C69.0334 53.141 70.9482 48.9348 71.9549 44.864C72.7286 41.7543 73.0124 39.3055 72.9995 35.9071C72.9806 30.9836 72.2268 27.0045 70.4777 22.6433C68.5278 17.765 65.7288 13.6339 61.8712 9.92114C59.1158 7.26779 56.5623 5.45152 53.1383 3.70456C51.9242 3.0786 49.9899 2.25778 49.592 2.18403C49.4879 2.17502 49.3835 2.12836 49.355 2.09082C49.317 2.05331 49.1086 1.99765 48.8812 1.9703C48.6445 1.94299 48.4454 1.87787 48.4263 1.83088C48.4072 1.77447 48.2839 1.7373 48.1609 1.73778C48.0284 1.73831 47.8294 1.69201 47.7156 1.62657C47.6018 1.57053 47.3553 1.48677 47.1754 1.45924C46.9953 1.42229 46.5026 1.30185 46.0857 1.19052C45.6687 1.06977 45.1571 0.949406 44.9487 0.903158C44.7402 0.866318 44.1434 0.746289 43.6224 0.644784C40.4677 0.0264518 36.5953 -0.165422 33.3022 0.14878ZM33.7786 0.947098C33.088 1.06278 32.4064 1.06546 32.406 0.952495C32.4058 0.896012 32.7654 0.866355 33.3334 0.864121C34.1381 0.879783 34.1949 0.888978 33.7786 0.947098ZM40.3102 0.911991C40.2537 0.968695 39.9508 0.979306 39.553 0.933795L38.8901 0.86109L39.6473 0.839286C40.1111 0.828049 40.3573 0.864733 40.3102 0.911991ZM31.2235 1.13601L31.6024 1.20983L31.0536 1.28731C30.4955 1.36481 30.3533 1.32772 30.4663 1.15782C30.532 1.03518 30.693 1.03455 31.2235 1.13601ZM42.1381 1.16839C42.0436 1.18759 41.8921 1.18818 41.8069 1.16969C41.7121 1.14182 41.7877 1.1227 41.9676 1.12199C42.1475 1.12129 42.2233 1.13982 42.1381 1.16839ZM29.7479 1.42424C29.8428 1.48976 29.7577 1.52776 29.436 1.57608C28.9725 1.65322 28.764 1.57873 29 1.4366C29.1795 1.32292 29.577 1.32136 29.7479 1.42424ZM40.8339 1.71012C51.0152 3.0351 60.001 8.54461 65.5519 16.873C68.7416 21.6616 70.5113 26.4464 71.263 32.3366C71.4581 33.8421 71.4486 38.7562 71.2459 40.2162C71.1632 40.8473 71.0905 41.6101 71.0916 41.9114C71.0927 42.2126 71.0284 42.7118 70.9538 43.0039C70.8793 43.3055 70.8143 43.6446 70.8147 43.767C70.8152 43.8799 70.7595 44.1626 70.6846 44.3982C70.6192 44.6245 70.5073 45.0485 70.4421 45.3312C70.0885 46.8953 69.0859 49.5916 68.1749 51.4592C65.4135 57.0903 61.3892 61.6907 56.1301 65.204C51.5507 68.2627 46.7204 70.061 41.0057 70.8272C39.1703 71.0791 34.5508 71.0973 32.8176 70.8688C31.0843 70.6308 28.8203 70.2067 28.1284 69.9835C27.9957 69.9463 27.6545 69.8441 27.3702 69.7606C26.2804 69.4448 25.56 69.2028 25.5124 69.1277C25.4838 69.0807 25.3606 69.0436 25.2376 69.0441C25.1145 69.0445 24.9533 68.9793 24.8678 68.9043C24.7918 68.8293 24.659 68.7639 24.5644 68.7643C24.4697 68.7647 24.3275 68.7087 24.2515 68.6431C24.166 68.5682 23.7203 68.3534 23.2462 68.1575C21.2267 67.3276 18.7128 65.9537 16.919 64.718C10.2558 60.1032 5.44053 53.5135 3.20564 45.9252C-0.323982 33.9833 2.79802 21.2243 11.4438 12.2C15.4226 8.05161 20.2576 5.01065 25.7599 3.20035C28.3598 2.35227 30.5827 1.90107 33.781 1.56842C34.7841 1.47032 39.7069 1.56393 40.8339 1.71012ZM28.471 1.71168C28.5281 1.79618 27.885 1.95875 27.7995 1.87436C27.771 1.85565 27.7803 1.78971 27.8179 1.73308C27.8932 1.6104 28.4043 1.58956 28.471 1.71168ZM27.393 1.99834C27.3931 2.04541 27.2703 2.11179 27.1096 2.15009C26.7785 2.22669 26.5415 2.12407 26.7398 2.00092C26.9192 1.88723 27.3925 1.89479 27.393 1.99834ZM26.4475 2.2939C26.4477 2.34096 26.391 2.38826 26.3342 2.38848C26.268 2.38874 26.1166 2.41758 26.0031 2.44627C25.8424 2.49397 25.7855 2.46596 25.7851 2.35299C25.7846 2.24002 25.8697 2.20203 26.1158 2.20106C26.2956 2.20035 26.4472 2.23741 26.4475 2.2939ZM25.5493 2.57043C25.4926 2.61773 25.3414 2.69363 25.1996 2.72244C24.9915 2.77974 24.9347 2.76113 24.9342 2.63876C24.9337 2.52579 25.0283 2.48776 25.2838 2.48676C25.5016 2.4859 25.5964 2.52318 25.5493 2.57043ZM24.8402 2.80858C24.8403 2.8274 24.5095 2.9605 24.1125 3.11268C23.7059 3.2555 23.2712 3.43607 23.139 3.50249C22.8367 3.66372 22.7609 3.6546 22.7602 3.48515C22.7599 3.39101 22.8543 3.34357 23.0342 3.34286C23.1857 3.34226 23.3274 3.28523 23.365 3.20035C23.3931 3.11551 23.5348 3.05847 23.743 3.05765C23.9419 3.05687 24.0836 2.99984 24.1212 2.91496C24.1493 2.83012 24.3005 2.77304 24.5087 2.77222C24.6886 2.77152 24.8401 2.78975 24.8402 2.80858ZM22.6191 3.72106C22.5909 3.76824 22.4586 3.81583 22.345 3.81628C22.2219 3.81676 22.0707 3.88325 22.0048 3.95883C21.9388 4.0344 21.7876 4.10089 21.674 4.10134C21.5509 4.10182 21.4375 4.13993 21.4187 4.17766C21.4094 4.21534 21.0882 4.40489 20.7292 4.59458C19.964 4.97415 19.0855 5.45772 18.6038 5.76087C18.4244 5.87454 18.2071 5.98837 18.1315 6.02632C17.8386 6.15926 15.7332 7.58905 15.2047 8.01481C15.0254 8.15668 14.8272 8.30806 14.7799 8.34597C14.6666 8.42169 13.5533 9.34865 12.9871 9.83096C12.3455 10.3795 10.0163 12.7139 10.0167 12.8081C10.0169 12.8646 9.97924 12.9023 9.92245 12.9026C9.73309 12.9034 9.83646 12.6958 10.2512 12.2518C10.487 12.0061 10.6754 11.77 10.6752 11.7323C10.6751 11.6947 10.958 11.4017 11.2975 11.0803C11.6465 10.7589 12.0427 10.3901 12.1746 10.2578C12.3161 10.1255 12.618 9.87012 12.8446 9.69035C13.0806 9.51057 13.4484 9.17964 13.6653 8.96226C13.8822 8.73545 14.0992 8.55575 14.1465 8.55553C14.2033 8.55531 14.2599 8.48916 14.2975 8.41373C14.3256 8.3383 14.4011 8.27208 14.4768 8.27179C14.5431 8.27156 14.7224 8.1485 14.8828 8.00663C15.0337 7.85539 15.3262 7.61892 15.5435 7.48626C15.7512 7.35364 15.9872 7.19268 16.0626 7.11707C16.3079 6.89017 17.0633 6.39767 17.2713 6.33095C17.3753 6.3023 17.4697 6.22662 17.4695 6.17955C17.4693 6.13248 17.526 6.0946 17.6017 6.0943C17.6775 6.094 17.7529 6.02781 17.7905 5.95235C17.8186 5.87692 17.9224 5.81062 18.0171 5.81025C18.1212 5.80983 18.2535 5.74342 18.3195 5.66785C18.3855 5.59227 18.5178 5.52586 18.6124 5.52548C18.7165 5.52508 18.7921 5.48712 18.7919 5.44006C18.7917 5.39298 18.99 5.25099 19.2451 5.12761C19.4908 5.00426 19.7269 4.8527 19.7645 4.79608C19.802 4.73002 19.9155 4.67309 20.0101 4.67272C20.1048 4.67235 20.2371 4.60593 20.303 4.53036C20.369 4.45479 20.4728 4.38848 20.5391 4.38822C20.6148 4.38792 20.7851 4.33077 20.9362 4.25487C21.3707 4.02722 21.8812 3.8181 21.9948 3.81766C22.0515 3.81743 22.0987 3.77018 22.0985 3.7231C22.0983 3.66662 22.2307 3.62845 22.3916 3.62781C22.5525 3.62719 22.6568 3.66442 22.6191 3.72106ZM9.72447 13.1293C9.64899 13.1861 9.47934 13.3844 9.33809 13.5639C8.90483 14.1398 8.5183 14.5462 8.47077 14.4993C8.34726 14.3774 9.61943 12.8849 9.77127 12.9785C9.81872 13.0065 9.80003 13.0725 9.72447 13.1293ZM8.41464 14.6784C8.41478 14.716 8.29243 14.886 8.13213 15.0561C7.98131 15.2261 7.84947 15.4054 7.84969 15.4526C7.84983 15.4996 7.81224 15.5657 7.75559 15.5941C7.54776 15.7173 7.67902 15.3873 7.94298 15.0944C8.10322 14.9244 8.22564 14.745 8.22542 14.6886C8.2252 14.6414 8.27236 14.6036 8.31974 14.6035C8.37653 14.6032 8.41449 14.6313 8.41464 14.6784ZM7.54813 15.8021C7.2382 16.4434 7.09671 16.5758 7.0953 16.2087C7.0949 16.1051 7.16083 16.0201 7.23656 16.0198C7.31226 16.0195 7.37833 15.9533 7.37804 15.878C7.37774 15.8027 7.42483 15.7367 7.48162 15.7364C7.53842 15.7362 7.56689 15.7643 7.54813 15.8021ZM6.83315 16.9628C6.69199 17.1799 6.63534 17.2178 6.59707 17.1143C6.55889 17.0297 6.59639 16.9355 6.66251 16.8976C6.72858 16.8502 6.81334 16.7369 6.85081 16.6332C6.89774 16.5295 6.94493 16.4917 6.97354 16.548C6.99273 16.6138 6.92716 16.793 6.83315 16.9628ZM6.36253 17.6613C6.2588 17.7653 6.15529 17.9257 6.12718 18.0011C6.08968 18.0954 6.07064 18.0672 6.0701 17.926C6.0602 17.8131 6.0977 17.7188 6.14503 17.7186C6.19236 17.7184 6.24883 17.6335 6.27679 17.5204C6.30472 17.3979 6.3708 17.3506 6.43721 17.3879C6.51312 17.4348 6.49451 17.5196 6.36253 17.6613ZM5.90163 18.4256C5.83613 18.6236 5.77926 18.605 5.77835 18.3696C5.77796 18.2661 5.81557 18.2 5.87251 18.2375C5.91995 18.2655 5.93921 18.3501 5.90163 18.4256ZM5.68551 18.8407C5.68572 18.8972 5.64811 18.9632 5.59143 18.9917C5.5442 19.0201 5.49673 18.9827 5.49644 18.9073C5.49611 18.8226 5.54319 18.7565 5.59052 18.7564C5.64732 18.7561 5.68533 18.7936 5.68551 18.8407ZM5.40352 19.3596C5.40363 19.3878 5.36594 19.435 5.30926 19.4635C5.26204 19.4919 5.21463 19.4733 5.21445 19.4262C5.21424 19.3697 5.26138 19.3224 5.30871 19.3223C5.36551 19.3221 5.40344 19.3407 5.40352 19.3596ZM5.03685 20.0106C4.96141 20.0862 4.9329 20.058 4.93239 19.9263C4.93141 19.6721 5.06343 19.5397 5.10209 19.7467C5.12135 19.8314 5.09342 19.9539 5.03685 20.0106ZM4.7641 20.473C4.6981 20.5391 4.6508 20.5487 4.65059 20.4922C4.65008 20.3604 4.76323 20.247 4.82975 20.3127C4.84879 20.3408 4.82069 20.4163 4.7641 20.473ZM4.52035 21.0858C4.41662 21.1898 4.35927 21.0488 4.43432 20.8696C4.49992 20.6999 4.50939 20.6999 4.53841 20.8598C4.5577 20.9539 4.54864 21.0575 4.52035 21.0858ZM4.27615 21.5857C4.27633 21.6328 4.22918 21.68 4.17239 21.6803C4.12505 21.6804 4.10594 21.6334 4.13416 21.5863C4.16234 21.5297 4.20952 21.4918 4.23793 21.4917C4.25686 21.4916 4.27593 21.5293 4.27615 21.5857ZM3.99457 22.2082C3.99485 22.2834 3.94767 22.3213 3.90023 22.2932C3.84329 22.2558 3.8241 22.19 3.85232 22.1428C3.93701 22.0107 3.99391 22.0387 3.99457 22.2082ZM3.68458 22.8307C3.65647 22.9061 3.62796 22.878 3.62756 22.7745C3.6177 22.6709 3.64587 22.6143 3.67442 22.6518C3.70293 22.68 3.71272 22.7646 3.68458 22.8307ZM3.4035 23.5849C3.37539 23.6603 3.34688 23.6322 3.34648 23.5286C3.33662 23.4251 3.3648 23.3686 3.39334 23.4061C3.42185 23.4342 3.43164 23.5189 3.4035 23.5849ZM3.12242 24.3392C3.09427 24.4052 3.07516 24.3582 3.07465 24.2263C3.07415 24.0946 3.09289 24.0475 3.12151 24.1038C3.14069 24.1696 3.14113 24.2826 3.12242 24.3392ZM41.2635 71.391C41.2352 71.4194 41.15 71.4291 41.0837 71.4011C41.0078 71.3731 41.0361 71.3448 41.1402 71.3444C41.2443 71.3346 41.3013 71.3626 41.2635 71.391ZM37.393 71.698C37.1374 71.7179 36.7399 71.7195 36.4937 71.7016C36.2381 71.6838 36.4463 71.6735 36.9385 71.6716C37.4307 71.6696 37.639 71.6783 37.393 71.698Z" fill="#81ADDB"/>
<path d="M27.0516 11.649C24.478 11.9792 21.7638 12.6677 19.2306 13.619C15.8655 14.8937 12.5547 17.9663 10.7603 21.5036C10.3469 22.3242 9.96237 23.2484 9.96303 23.4178C9.96325 23.4743 9.89762 23.644 9.82243 23.7855C9.74732 23.9364 9.68183 24.1532 9.68235 24.2755C9.68278 24.3885 9.60789 24.6054 9.51372 24.7375C9.38202 24.9546 9.35472 25.2277 9.35998 26.6021C9.3656 28.0519 9.39494 28.2965 9.63511 29.2181C10.5091 32.4813 12.307 34.7431 15.1713 36.1721C18.69 37.9093 23.8786 38.1902 27.3379 36.8209C30.8445 35.4327 33.6535 32.3244 34.5111 28.8661C34.7815 27.7919 34.849 25.664 34.6363 24.5163C34.1331 21.6753 32.9236 19.7784 31.0552 18.8631C30.5905 18.6391 30.1071 18.4715 29.9272 18.4722C29.7568 18.4729 29.3495 18.3992 29.0273 18.3157C28.582 18.1951 28.0422 18.1595 26.6034 18.1652C24.9847 18.1716 24.6535 18.2011 23.859 18.3926C22.8094 18.6603 21.883 19.0216 21.1369 19.4671C20.4569 19.8651 19.3819 20.9331 18.8547 21.7071C18.45 22.3113 17.7268 23.792 17.7276 24.0086C17.7279 24.0745 17.6435 24.2819 17.5401 24.48C17.089 25.329 17.2376 27.0418 17.8865 28.3854C18.7454 30.1708 20.8418 31.311 23.2367 31.3016C25.3665 31.2932 26.9158 30.4587 27.6294 28.9308C27.8641 28.4309 27.9294 28.1765 27.9457 27.508C27.9972 26.1146 27.5571 24.9019 26.635 23.917C25.9506 23.1855 25.7041 23.0735 25.0323 23.1609C24.5119 23.2193 23.7842 23.5329 23.7848 23.6929C23.7849 23.7305 23.7189 23.7685 23.6431 23.7688C23.4727 23.7695 23.4551 24.1085 23.608 24.4938C23.6653 24.6348 23.9983 25.0571 24.3594 25.4135C25.0152 26.0887 25.2155 26.4832 25.2179 27.114C25.2185 27.2646 25.257 27.4339 25.3141 27.4902C25.4376 27.6121 25.2881 28.121 25.0245 28.5174C24.7233 28.9422 24.2511 29.2454 23.7686 29.2943C23.2576 29.3622 22.9829 29.2974 22.6696 29.0539C22.5366 28.9509 22.2423 28.7261 22.005 28.5575C21.0272 27.8365 20.4835 26.7749 20.4028 25.4666C20.2406 22.6996 22.3345 20.7144 25.8826 20.258C28.0682 19.9764 29.8515 20.939 30.9101 22.9588C31.654 24.3868 31.7888 24.9982 31.7967 27.0316C31.7948 28.9897 31.7391 29.2724 31.0812 30.5176C29.8783 32.8005 27.603 34.3723 24.5669 35.0243C23.4129 35.2736 21.3303 35.263 20.1365 34.9947C19.6439 34.8836 19.1985 34.7536 19.1415 34.6974C19.0939 34.6505 18.9612 34.6133 18.8382 34.6138C18.7246 34.6143 18.5919 34.5583 18.5537 34.4832C18.5156 34.4079 18.4111 34.3331 18.3353 34.3145C18.2596 34.296 18.1742 34.2681 18.1457 34.24C18.1172 34.2119 17.8611 34.0716 17.5671 33.9316C14.7979 32.6151 12.9422 30.0806 12.7517 27.3325C12.6113 25.2808 13.4808 22.472 14.9676 20.1785C15.6452 19.1403 17.2484 17.5618 18.3626 16.8232C21.3464 14.8627 24.7698 13.9832 31.5549 13.4293C34.2141 13.2118 35.0082 12.9544 34.741 12.3813C34.5978 12.0806 34.1616 11.8658 33.5555 11.8211C33.2904 11.8033 32.8547 11.7391 32.5895 11.6836C31.8221 11.5266 28.187 11.5033 27.0516 11.649ZM32.9528 12.6236C32.9908 12.6612 32.5461 12.7193 31.9594 12.7593C29.4041 12.9294 26.8684 13.25 24.9294 13.6531C19.8689 14.6897 16.4123 16.7744 14.2762 20.0871C13.3447 21.5406 12.3032 23.9358 12.1746 24.9624C12.147 25.1602 12.0908 25.3205 12.0529 25.3206C11.8826 25.3213 12.2079 23.7856 12.6201 22.6448C13.2663 20.8442 14.4237 19.051 15.8005 17.6805C17.762 15.7241 19.9914 14.5292 23.3012 13.6501C25.3438 13.1054 27.0656 12.8445 30.8887 12.5093C31.4186 12.4602 32.8578 12.5393 32.9528 12.6236ZM27.545 19.3289C27.7345 19.3752 27.9903 19.4306 28.1229 19.4584C28.2556 19.4861 28.4452 19.5701 28.5497 19.6544C28.7396 19.8043 28.7302 19.8043 28.5028 19.7487C26.295 19.202 23.0321 19.9773 21.4946 21.4049C20.7589 22.0856 20.3352 22.6804 19.8846 23.6706L19.5092 24.4911L19.5641 24.0202C19.5914 23.7471 19.7788 23.2097 20.0042 22.757C20.8683 21.0026 22.5111 19.8852 24.961 19.3955C25.7366 19.2324 27.0617 19.1989 27.545 19.3289ZM26.9287 28.8865C26.6564 29.4524 25.911 30.1049 25.2494 30.3617C24.2096 30.7612 22.2026 30.7126 21.3489 30.2641C20.9411 30.0585 21.1209 30.039 21.8221 30.2245C22.8929 30.5027 24.4163 30.3461 25.4083 29.8339C25.9846 29.5398 26.6633 28.8028 26.8883 28.2277L27.0663 27.7563L27.0961 28.1139C27.1159 28.3397 27.0507 28.6224 26.9287 28.8865ZM33.791 28.6901C33.5028 30.0751 32.8457 31.4897 31.9508 32.6418C31.4423 33.3121 30.1029 34.5695 29.4326 35.0335C28.6017 35.6015 27.2316 36.2471 26.3334 36.5142C24.603 37.0199 22.237 37.1704 20.2481 36.9053C18.78 36.7133 17.1313 36.2868 16.9031 36.0429C16.7985 35.9304 16.808 35.921 16.9502 35.9674C17.3673 36.1164 18.7979 36.4215 19.6408 36.5405C20.8627 36.724 23.3049 36.705 24.5821 36.5117C26.9567 36.154 29.1486 35.0439 30.8271 33.3522C32.1189 32.0481 32.8901 30.7553 33.5171 28.8417C33.91 27.6352 34.0233 27.5689 33.791 28.6901ZM16.7038 35.9025C16.6755 35.9308 16.5903 35.9407 16.524 35.9126C16.4481 35.8847 16.4765 35.8564 16.5806 35.8559C16.6847 35.8461 16.7415 35.8741 16.7038 35.9025Z" fill="#81ADDB"/>
<path d="M49.577 15.2506C45.3107 16.03 40.9993 19.8408 38.8976 24.6878C38.7662 24.9896 38.6537 25.2913 38.654 25.3478C38.6542 25.4043 38.598 25.5646 38.5323 25.6966C38.4571 25.8287 38.373 26.1208 38.336 26.3469C38.299 26.5824 38.2241 26.7899 38.1769 26.8277C37.8464 27.0266 37.8581 30.0768 38.195 31.5252C39.1577 35.6824 41.9427 38.6369 46.1129 39.9478C47.3356 40.3384 48.1596 40.467 49.0681 40.4069C52.4845 40.1769 56.087 36.6325 57.15 32.4391C57.4296 31.3177 57.424 29.8491 57.1454 28.7959C56.5117 26.4825 54.9706 24.5022 53.0832 23.5871C52.6185 23.363 52.3817 23.3075 51.8042 23.2909C51.416 23.283 51.0183 23.2563 50.933 23.2284C50.6487 23.1448 49.3054 23.376 48.7099 23.6137C47.0559 24.2698 45.5755 25.7724 44.825 27.5452C44.703 27.8281 44.5526 28.0923 44.4959 28.1302C44.326 28.2438 44.3785 29.5898 44.57 30.1539C45.1059 31.6674 46.8333 32.8374 48.8125 33.0367C49.9016 33.1454 51.1876 32.7826 51.7155 32.2063C52.2717 31.611 52.2396 30.6603 51.6515 30.352C51.5472 30.2959 51.1213 30.3259 50.4024 30.4511C49.5037 30.6146 49.2576 30.625 48.9164 30.5322C48.6891 30.4672 48.4803 30.3645 48.4517 30.2986C48.4325 30.2329 48.2426 30.0736 48.0338 29.9426C47.8345 29.8022 47.5398 29.4833 47.3778 29.2014C46.7298 28.0837 47.1985 26.8863 48.484 26.4011C50.7715 25.5355 53.4463 26.9088 54.2984 29.3908C54.5856 30.2369 54.6589 32.0535 54.4347 32.8357C53.7342 35.2767 52.4242 36.7881 50.5425 37.351C49.8239 37.5609 48.3945 37.5571 47.5417 37.3345C46.8879 37.1582 46.7456 37.1023 45.6927 36.5416C43.3023 35.2801 41.7713 33.4598 41.1279 31.09C40.8783 30.1872 40.823 28.1352 41.0089 27.2307C41.5202 24.8187 42.6766 22.7431 44.3838 21.1454C47.4493 18.2809 51.4125 17.4463 54.6748 18.9774C57.5482 20.3217 60.2806 24.359 60.8727 28.1599C61.057 29.3171 60.9936 32.5275 60.7795 33.4604C60.0529 36.5134 58.8605 39.0598 55.9816 43.6746C55.3889 44.6277 54.8435 45.5525 54.7684 45.7317C54.6934 45.9108 54.571 46.0807 54.4954 46.1187C54.3063 46.1854 54.3178 46.7031 54.4979 46.7683C55.0098 46.964 56.0392 46.3292 57.3123 45.0533C59.6602 42.6999 61.7001 38.9828 63.2061 34.2981C63.7766 32.5072 63.9531 31.6404 64.0042 30.1528C64.0906 28.006 63.7795 25.8703 63.0614 23.7643C61.8356 20.126 59.7908 17.6393 56.8602 16.2011C56.3291 15.9395 55.8266 15.7438 55.732 15.763C55.6375 15.7916 55.5806 15.773 55.6089 15.7353C55.6371 15.6881 55.5043 15.6227 55.3054 15.5953C55.1065 15.5678 54.8602 15.5217 54.7559 15.4939C53.1546 15.0954 50.977 14.991 49.577 15.2506ZM52.5291 17.3572C53.2584 17.4673 54.7086 17.9229 54.5383 17.98C54.4722 17.9991 54.3206 17.9809 54.2163 17.9248C54.1025 17.8687 53.8183 17.804 53.5815 17.7861C53.3448 17.7588 52.7955 17.6856 52.3503 17.6309C50.7023 17.4114 48.6874 17.7865 46.949 18.6312C45.7395 19.2102 44.7861 19.9106 43.7017 20.9975C42.6361 22.0654 41.9863 22.9435 41.3755 24.1227C41.0749 24.7075 40.9248 25.0752 40.4659 26.3386C40.3909 26.5177 40.3068 26.8381 40.2698 27.0454L40.205 27.4222L40.1844 26.9986C40.1523 26.0291 40.9773 23.9642 42.022 22.3974C43.7256 19.8301 46.8131 17.7845 49.6513 17.3591C50.3704 17.2527 51.8566 17.2468 52.5291 17.3572ZM51.3864 25.4295C51.9458 25.6626 51.8985 25.6722 50.8946 25.535C49.5971 25.3706 48.1784 25.6963 47.31 26.3587C47.1401 26.4911 46.8292 26.8595 46.6222 27.1804C46.1892 27.8411 46.0941 27.7003 46.4603 26.9269C46.8264 26.1253 47.6949 25.5005 48.7353 25.2705C49.3879 25.1267 50.8555 25.215 51.3864 25.4295ZM51.3623 31.4546C51.3634 31.7464 51.0994 32.0204 50.6363 32.2011C50.0313 32.4294 48.7345 32.4345 48.0899 32.2017C47.3978 31.9503 47.3501 31.8375 47.9563 31.9293C48.6477 32.0301 49.7078 31.9977 50.1901 31.864C50.4076 31.8067 50.7194 31.6548 50.8988 31.5317C51.2952 31.2477 51.3614 31.2381 51.3623 31.4546ZM63.0093 32.369C62.8511 33.0662 62.3465 34.7721 61.9906 35.7621C60.9981 38.5996 59.5415 41.3636 57.9872 43.3561C57.3844 44.1304 55.8474 45.6709 55.6864 45.6716C55.4876 45.6723 56.015 44.9642 56.9672 43.9437C57.5045 43.358 58.2864 42.3759 58.7005 41.7529C59.6134 40.3842 61.1446 37.3187 61.7721 35.5746C62.2498 34.2548 62.9979 31.8513 63.0157 31.55C63.0247 31.4464 63.0532 31.4745 63.0727 31.6156C63.1016 31.7473 63.065 32.0863 63.0093 32.369ZM56.3929 32.4892C56.0396 34.1568 54.9677 36.0533 53.5533 37.4709C51.6014 39.4461 49.3323 40.1799 47.2283 39.5387C46.5934 39.3434 45.7022 38.9986 45.7399 38.9702C45.7588 38.9514 46.2136 39.0531 46.7537 39.1827C48.118 39.5163 49.1688 39.5122 50.1993 39.1598C52.8841 38.2455 55.2593 35.5626 56.2126 32.3769C56.4462 31.5758 56.5601 31.6506 56.3929 32.4892Z" fill="#81ADDB"/>
<path d="M32.7859 38.1456C30.4106 38.3337 27.7932 39.5679 25.8031 41.4491C25.0109 42.2053 24.5119 42.9133 24.1086 43.8752C23.921 44.3372 23.7145 44.7993 23.6581 44.9031C23.4889 45.1861 23.4565 46.6266 23.5924 47.511C23.8256 49.0634 24.5806 50.9338 25.5709 52.4079C26.1421 53.2624 27.482 54.5845 28.1841 54.9959C28.8387 55.3699 29.6351 55.6962 30.45 55.9096C31.3123 56.1415 33.8303 56.1317 34.7003 55.8929C36.5159 55.3868 37.9977 54.2513 38.6644 52.8554C39.1433 51.8556 39.2637 51.1585 39.1925 49.8973C39.0805 47.836 38.1743 46.0416 36.7792 45.1339C36.2668 44.797 36.2099 44.7784 35.2537 44.7445C34.6193 44.7187 34.0988 44.7396 33.8151 44.8161C32.4723 45.1884 31.0191 46.371 30.4085 47.6066C30.23 47.965 30.0326 48.3047 29.976 48.3614C29.693 48.6167 29.7723 49.5578 30.1147 49.9612C30.9135 50.9183 31.9533 50.5094 32.506 49.0198C32.759 48.3316 33.315 47.6987 33.8633 47.4894C34.4682 47.2611 35.2921 47.3332 35.7951 47.6607C36.2696 47.9695 36.4316 48.2701 36.6246 49.2013C36.798 50.0008 36.7518 50.2928 36.3291 51.1418C35.8311 52.1134 34.7931 52.9459 33.6207 53.3082C33.0817 53.4704 32.7978 53.4997 32.012 53.4652C31.1031 53.4311 30.6767 53.3104 30.2968 53.0106C30.2398 52.9638 29.8602 52.7111 29.4616 52.4491C28.2565 51.6819 27.0197 50.0769 26.5125 48.6574C25.7564 46.514 26.5809 44.3173 28.7987 42.5576C30.3464 41.3183 32.3603 40.689 34.3865 40.794C35.5984 40.8551 36.3469 41.0405 37.4565 41.5538C38.5376 42.058 39.0311 42.3855 39.9336 43.2292C41.2827 44.4854 42.2447 46.0067 42.8479 47.8118C43.346 49.3255 43.4337 49.9559 43.4229 52.0741C43.4107 53.8158 43.3925 54.0135 43.1774 54.6921C42.7283 56.0589 42.1544 56.9932 41.1268 58.0516C39.8726 59.3274 38.3513 60.0395 36.0147 60.4441C35.116 60.5982 32.1433 60.5158 31.2149 60.3218C30.1822 60.0905 29.1584 59.7367 28.9398 59.5211C28.9114 59.493 28.5984 59.3341 28.2285 59.1662C27.8681 58.9887 27.1566 58.5867 26.6631 58.2591C23.5693 56.2285 21.2193 53.1594 18.1859 47.1651C17.5373 45.8968 16.975 44.9105 16.7468 44.6478C16.357 44.2069 16.1957 44.1228 16.1967 44.3676C16.197 44.4429 16.1499 44.5089 16.1026 44.5092C16.0458 44.5094 15.961 44.6133 15.8952 44.7453C15.8389 44.8679 15.7635 44.9529 15.7255 44.9343C15.5642 44.8313 15.548 45.5374 15.6936 46.4689C16.2277 49.9594 18.8488 54.5807 22.5941 58.6517C23.963 60.1432 25.2635 61.0701 27.2835 62.0317C28.7914 62.7412 30.1562 63.1972 31.7668 63.5297C32.8184 63.7422 33.2066 63.7783 34.6833 63.7725C36.5009 63.7747 37.2767 63.6587 38.6191 63.2015C41.7388 62.1255 44.6349 59.5158 45.7508 56.7625C46.5103 54.8768 46.7856 52.6445 46.5125 50.5463C46.1903 47.9964 45.138 45.1575 43.7575 43.0824C43.1195 42.1247 41.58 40.5774 40.6405 39.9692C39.72 39.3703 38.2121 38.6608 37.6722 38.5782C37.4354 38.5415 36.8102 38.431 36.2892 38.3295C35.1903 38.1172 33.9973 38.0467 32.7859 38.1456ZM34.8277 39.8226C35.7274 39.9321 37.3478 40.387 37.0642 40.454C36.9601 40.4732 36.7328 40.4459 36.5432 40.3901C34.9796 39.935 32.6513 40.0571 30.9214 40.6852C28.7379 41.494 26.8133 43.1961 25.9497 45.0823C25.4334 46.2329 25.3864 46.3084 25.3856 46.1107C25.3844 45.7718 25.6745 44.914 26.0221 44.2348C26.445 43.4235 27.7837 41.9967 28.6902 41.4001C29.9176 40.5762 31.4394 39.996 32.8303 39.8305C33.7481 39.7233 33.9469 39.7225 34.8277 39.8226ZM35.4215 46.5325C35.6207 46.6164 35.5355 46.645 34.8542 46.6947C33.5009 46.7942 32.4054 47.4857 31.9834 48.5041C31.8896 48.7304 31.749 49.0793 31.6645 49.2773C31.5238 49.6168 31.3164 49.8153 31.0892 49.8162C30.9093 49.8169 30.9748 49.6189 31.2575 49.2977C31.4083 49.1277 31.5962 48.7598 31.6898 48.477C32.176 46.903 34.0088 45.9543 35.4215 46.5325ZM38.3106 51.9153C38.124 52.6504 37.9078 53.0466 37.3895 53.6323C36.1736 54.9833 33.9896 55.7168 31.9155 55.4614C31.0537 55.3518 30.0018 55.0641 29.8212 54.8765C29.7547 54.8203 29.821 54.8106 30.0105 54.857C31.5738 55.2179 32.7952 55.279 34.0154 55.0294C35.6896 54.684 37.2095 53.6142 37.8483 52.3126C38.0362 51.9541 38.2048 51.5015 38.2419 51.3131C38.2976 51.0211 38.3165 51.0022 38.3834 51.1713C38.4217 51.2842 38.3945 51.595 38.3106 51.9153ZM45.6196 54.6731C45.5467 55.3983 45.2194 56.4352 44.8249 57.2275C43.6412 59.5857 41.0841 61.7327 38.4086 62.6281C36.5178 63.2663 33.754 63.3431 31.6977 62.8052C30.8829 62.6012 29.9445 62.3037 29.7074 62.1822C29.5747 62.1168 29.4041 62.061 29.3283 62.052C29.2526 62.0522 29.2335 62.0241 29.2902 62.005C29.3469 61.9765 29.7543 62.0597 30.1997 62.1897C31.8486 62.6539 32.6536 62.7543 34.7267 62.7368C36.5253 62.7297 36.7334 62.71 37.5939 62.4713C41.3198 61.4587 44.4885 58.3773 45.4027 54.8811C45.5146 54.4476 45.6268 54.0894 45.6458 54.0893C45.6647 54.0893 45.6563 54.353 45.6196 54.6731Z" fill="#81ADDB"/>
</g>
<defs>
<clipPath id="clip0_1_488">
<rect width="73" height="73" fill="white"/>
</clipPath>
</defs>
</svg>
