<svg width="69" height="76" viewBox="0 0 69 76" fill="none" xmlns="http://www.w3.org/2000/svg">
<g clip-path="url(#clip0_2_2236)">
<path d="M35.0319 0.94736C35.0319 2.11321 34.759 3.96797 34.2675 5.9817C32.9391 11.6167 29.3721 17.0926 25.0226 20.1662C22.6567 21.8443 20.6912 24.1407 19.0534 27.1083C18.016 28.9807 17.1971 32.231 17.1971 34.4214C17.1971 36.4351 17.2517 36.3998 15.5592 35.3046C15.0132 34.9513 14.1943 34.4214 13.7393 34.1387C13.2844 33.8561 12.884 33.5911 12.8294 33.5381C12.338 33.0259 7.77009 30.8002 5.98662 30.1996C4.89469 29.8286 1.94648 29.3694 1.78269 29.546C1.74629 29.5813 1.91009 30.0406 2.14667 30.5705C3.76636 34.015 4.11214 35.4812 4.22133 39.3321C4.31233 42.229 4.27593 42.7413 3.91195 44.2781C3.47518 46.1151 3.40239 46.3095 2.09207 48.9944C0.581571 52.0681 0.454179 52.4743 0.0902029 55.124C-0.128183 56.7314 0.0720041 60.0701 0.454179 60.7413C0.545173 60.9179 0.636167 61.2359 0.636167 61.4126C0.636167 61.6068 0.818154 62.1191 1.01834 62.543C1.23673 62.9493 1.58251 63.6559 1.80089 64.0798C2.60164 65.705 4.7855 67.4007 6.62358 67.8247C7.53349 68.0543 9.18963 68.2133 9.18963 68.0896C9.18963 67.8954 7.56992 65.599 7.00578 64.9808C5.78643 63.6736 5.53165 63.3733 4.93109 62.5607C3.80276 61.0239 3.45698 59.9641 3.47518 58.1799C3.47518 56.7138 4.09394 53.1986 4.47612 52.3507C4.56711 52.1564 4.7491 51.5558 4.89469 51.0258C5.04028 50.4959 5.40426 49.2595 5.73184 48.2879C7.47891 42.8826 7.64272 42.07 7.64272 38.7492C7.64272 36.7884 7.56992 35.6932 7.3879 35.1633C7.24231 34.757 7.16951 34.3684 7.22416 34.3154C7.35154 34.1917 8.771 34.651 9.58996 35.075C11.792 36.2231 13.7575 38.3428 14.8313 40.6922C15.0678 41.1691 15.3044 41.7167 15.3954 41.8757C15.6684 42.4057 16.3418 44.8963 16.5056 45.9915C16.9969 49.4008 17.1971 51.8384 17.1971 54.912C17.1971 58.6392 17.2335 58.8335 18.3618 61.1829C20.5456 65.7227 25.2227 68.5666 31.556 69.2381C33.9582 69.4854 37.0884 69.2381 38.8173 68.6726C39.3996 68.496 39.9638 68.337 40.0912 68.337C40.5462 68.337 43.1486 67.0475 44.2769 66.2702C44.8957 65.8463 45.8602 65.0338 46.4244 64.4861C47.4071 63.5146 49.227 60.6706 49.227 60.1231C49.227 59.9641 49.3362 59.6637 49.4818 59.4518C49.6274 59.2398 49.9732 58.4272 50.2461 57.65C50.7193 56.3429 50.7557 56.0425 50.7375 53.4106C50.7375 51.2555 50.6647 50.3193 50.41 49.4361C50.2279 48.8002 50.0278 48.0053 49.9367 47.6696C49.8457 47.2104 48.1897 42.4586 48.1351 42.4586C48.1351 42.4586 47.9167 41.8934 47.6437 41.2221C47.2433 40.1976 47.1523 39.6147 47.0977 37.8306C47.0249 35.6755 47.116 34.8983 47.6619 32.9199C48.1715 31.1181 49.5182 28.3448 50.7557 26.5784C52.248 24.4057 55.997 20.1132 56.1062 20.4311C56.1425 20.5371 56.0334 21.1201 55.8878 21.756C55.3054 24.1583 55.3418 27.4969 55.9424 30.5352C56.1971 31.754 56.8705 33.9621 57.0707 34.1387C57.1617 34.2447 57.2345 34.4391 57.2345 34.598C57.2345 34.757 57.7258 35.8522 58.3264 37.0357C59.3637 39.1024 60.947 41.5755 62.6395 43.8541C64.8598 46.7864 65.7879 50.2133 65.3876 54.0288C65.1692 56.1839 64.6778 57.7207 63.3675 60.388C62.5304 62.0661 61.038 64.0622 59.3637 65.7757C58.6904 66.4469 58.199 67.0298 58.2536 67.0828C58.3082 67.1358 59.018 66.9591 59.8369 66.6765C62.2027 65.864 64.241 64.3802 65.9517 62.2075C66.6797 61.2712 68.1538 58.4273 68.1538 57.9327C68.1538 57.7207 68.2266 57.4203 68.3175 57.2438C69.2277 55.5303 69.2277 48.4115 68.3175 47.4047C68.2266 47.3164 68.1538 47.0691 68.1538 46.8394C68.1538 46.1328 66.7707 43.5715 65.3876 41.752C63.4403 39.1731 63.3492 39.0494 62.2392 36.8943C61.857 36.1701 61.4566 35.3752 61.3292 35.128C60.9106 34.3684 60.3283 32.6196 59.8187 30.8002C59.4001 29.2457 59.3455 28.6805 59.3455 26.0308C59.3273 23.4164 59.382 22.8159 59.7641 21.4557C60.0007 20.5725 60.2555 19.7422 60.3465 19.601C60.8561 18.7177 61.4748 17.1456 61.4202 16.8453C61.402 16.651 61.3292 16.0857 61.2564 15.6088C61.1472 14.7962 61.0926 14.7256 60.6923 14.7785C60.3283 14.8139 57.5074 16.28 57.2345 16.5804C57.1799 16.6334 56.7795 16.8983 56.3246 17.1809C53.3218 19.071 49.9003 22.4273 47.5709 25.7658C45.0958 29.3164 43.3852 33.6618 42.9302 37.6539C42.8574 38.2192 42.73 38.7138 42.6572 38.7668C42.3114 38.9611 41.1467 36.1348 40.6553 33.9797C40.4552 33.0789 40.4734 29.9876 40.6736 28.9454C41.1467 26.4724 41.9293 23.5931 42.3842 22.5156C42.548 22.1446 42.6754 21.6677 42.6754 21.4557C42.6754 21.2437 42.7482 20.9965 42.8392 20.9081C43.1486 20.5725 43.5854 19.018 43.6945 17.8522C43.8401 16.227 43.4761 12.3409 43.0212 10.8394C41.4925 5.76973 39.7818 2.97876 36.9246 0.894368C35.2685 -0.306812 35.0319 -0.306812 35.0319 0.94736ZM39.1267 8.38404C41.1649 14.1603 40.6918 20.5901 37.7981 26.0308C37.0884 27.3733 37.0884 27.3733 36.6698 28.4508C36.1056 29.8639 36.1238 32.4253 36.7062 34.0504C37.6708 36.7884 39.618 39.5793 42.3114 42.0877C44.8411 44.4548 45.7692 45.8149 46.6064 48.3585C47.7529 51.8384 47.1341 56.8374 45.1686 59.9464C43.185 63.0906 41.4015 64.3625 37.6708 65.334C35.6507 65.864 31.92 65.8639 29.9181 65.3517C26.3511 64.4331 23.7123 62.5077 22.3837 59.8934C21.8014 58.7452 21.6376 58.1976 21.4192 56.3959C21.0916 53.9405 21.2736 52.4037 22.0926 50.6726C22.6567 49.4538 24.0762 47.6873 25.1682 46.8217C25.6414 46.4685 26.0599 46.1328 26.1145 46.0798C26.2055 45.9915 26.3875 45.8856 27.352 45.3732C29.1901 44.4018 31.9927 43.9424 34.1584 44.2781C35.6507 44.5077 37.1976 45.073 38.0893 45.7266C38.9629 46.3448 40.255 48.0936 40.528 48.9591C40.6371 49.3655 40.8192 49.807 40.9283 49.9484C41.0375 50.0897 41.1286 51.0612 41.1286 52.2447C41.1286 54.4351 40.8555 55.5126 39.8728 56.9964C39.3814 57.756 37.6162 59.3282 37.2703 59.3282C37.1612 59.3282 36.779 59.4694 36.4515 59.6637C34.7043 60.6 32.1201 60.547 30.3185 59.5047C27.989 58.1976 27.2792 55.4243 28.7351 53.3752C30.6096 50.7256 34.7772 50.3193 35.5779 52.704C36.0875 54.2055 34.6315 55.23 31.8653 55.3183C31.1556 55.336 30.6642 55.4243 30.6642 55.548C30.6642 55.9366 31.9745 57.1908 32.6115 57.4027C33.5942 57.703 34.9591 57.3321 36.0693 56.4665C37.0156 55.707 38.3077 53.9758 38.3077 53.4459C38.3077 53.2692 38.3987 52.9513 38.5079 52.757C39.0539 51.7677 37.2704 49.4891 35.2867 48.6412C34.3586 48.2349 33.9764 48.1642 32.4841 48.1819C29.8998 48.1819 28.0617 48.9944 26.3875 50.8316C25.7142 51.5735 25.5867 51.7677 25.1682 52.863C24.3856 54.8944 24.604 57.4203 25.6959 59.0632C26.2055 59.8227 27.6614 61.2712 27.9162 61.2712C28.0072 61.2712 28.171 61.3949 28.2983 61.5362C28.6623 61.9601 30.6642 62.808 32.0837 63.1436C33.6852 63.4969 35.5233 63.4086 37.0884 62.8787C39.4361 62.0838 43.0394 58.6216 43.5126 56.7314C43.5854 56.4665 43.6945 56.1485 43.7673 56.0602C43.8401 55.9542 44.0039 55.283 44.1313 54.5587C44.9685 49.6657 42.3114 44.2958 37.9619 42.123C36.9428 41.6108 35.3777 41.1868 34.0856 41.0455C32.9209 40.9395 32.8116 40.8865 32.2111 40.1976C30.8462 38.6608 29.9545 35.9405 30.2092 34.0857C30.373 32.9376 31.0282 30.7295 31.4285 30.0406C31.6106 29.7226 31.7561 29.387 31.7561 29.2987C31.7561 29.1574 34.395 24.494 34.8681 23.8228C35.2503 23.2575 37.0338 19.601 37.0338 19.3713C37.0338 19.23 37.1066 19.0533 37.1976 18.9474C37.4342 18.7177 37.9437 15.9974 37.9437 14.9552C37.9437 13.966 37.7436 13.966 37.2886 14.9552C36.779 16.0328 35.1957 18.6647 34.9228 18.8944C34.7772 19.0003 34.6679 19.1593 34.6679 19.2476C34.6679 19.336 34.0674 20.2192 33.3394 21.2084C30.3548 25.3242 29.4267 26.7197 28.3166 28.8571C26.8061 31.7187 26.4057 33.2908 26.5331 35.8345C26.6423 38.0956 26.8424 38.8728 27.625 40.3919C27.989 41.0808 28.2983 41.7344 28.2983 41.805C28.2983 41.8757 27.6978 42.2114 26.988 42.5293C25.5504 43.1829 22.129 45.0377 21.3464 45.6029C20.7277 46.0445 20.4001 45.9209 19.9269 45.0377C19.3991 44.0308 19.4719 43.3242 20.1999 41.9287C20.5639 41.2398 20.8005 40.5862 20.7277 40.4449C20.0543 38.8198 19.9451 35.7815 20.4911 33.5735C20.855 32.072 21.0916 31.4538 22.0743 29.4754C23.1299 27.391 25.6595 24.229 29.8635 19.7776C32.7935 16.6687 34.7407 14.178 36.0147 11.8993C36.3968 11.2103 36.779 10.5744 36.8336 10.4861C36.9974 10.2742 37.689 8.13677 37.9619 7.05923C38.0893 6.56463 38.2167 6.35266 38.3259 6.45864C38.4169 6.54696 38.7809 7.41256 39.1267 8.38404Z" fill="#FF4500"/>
<path d="M52.7943 28.6272C52.6488 28.8392 52.4667 29.2631 52.3939 29.5634C52.3211 29.846 52.212 30.164 52.1574 30.27C51.5204 31.2238 51.1564 34.6331 51.4112 37.1944C51.5204 38.2366 51.6842 39.3671 51.7752 39.6674C51.8844 39.9854 52.0482 40.5153 52.1392 40.8333C52.2484 41.1512 52.3211 41.5575 52.3211 41.7342C52.3211 42.1404 53.2493 45.3553 54.0682 47.7577C54.9054 50.2661 55.6334 53.5163 55.506 54.1875C55.4332 54.5408 55.2876 55.371 55.142 56.0599C54.778 58.0561 54.3413 59.4692 53.4859 61.3769C52.1574 64.4152 51.0836 65.9697 49.0636 67.8598C47.8261 69.0079 45.3874 70.6327 44.8961 70.6327C44.805 70.6327 44.4775 70.7564 44.1499 70.916C43.8223 71.0749 43.058 71.2691 42.4392 71.3395C41.8204 71.428 40.5829 71.6401 39.673 71.8163C38.3445 72.0636 37.107 72.1168 33.1214 72.1348C28.6081 72.1348 28.0803 72.0995 26.679 71.7285C25.8419 71.5164 25.0047 71.3395 24.8046 71.3395C24.6226 71.3395 24.1131 71.1806 23.7126 70.9865C23.2941 70.7923 22.8391 70.6327 22.7117 70.6327C22.3295 70.6327 19.3085 69.1141 18.2166 68.372C16.5242 67.2415 14.2857 65.0158 14.2857 64.4859C14.2857 64.3622 14.1583 64.0619 13.9945 63.8323C13.7033 63.3906 13.5577 62.9491 13.0664 60.8294C12.7752 59.5222 12.8115 57.5437 13.1937 55.1768C13.303 54.4878 13.4667 53.3749 13.5577 52.7037C13.6487 52.0148 13.7943 50.902 13.9035 50.2307C14.2674 47.634 14.3039 46.7862 14.1037 45.3553C13.8671 43.6596 13.6851 43.006 13.1027 41.7518C12.575 40.6213 11.0827 38.7489 10.9189 39.0138C10.8461 39.1198 10.8643 39.2964 10.9553 39.4201C11.4103 39.9854 11.574 41.3102 11.574 44.3131C11.574 46.9628 11.4831 47.8813 11.1009 49.9127C10.2091 54.5408 10.0999 55.1768 9.91796 57.3671C9.59034 60.9706 10.1546 64.5742 11.3739 66.4819C11.938 67.3652 14.959 70.1028 16.4149 71.0217C22.0384 74.6255 28.499 76.1621 35.7239 75.6322C38.6357 75.42 42.057 74.7492 42.5848 74.307C42.6758 74.2365 42.8942 74.166 43.0762 74.166C43.9862 74.166 49.7005 71.3395 49.9189 70.7923C49.9553 70.7039 50.1009 70.6327 50.2283 70.6327C50.3739 70.6327 51.3748 69.785 52.4667 68.7253C54.5051 66.7822 56.0519 64.7155 56.8709 62.8607C57.0893 62.3308 57.3986 61.6243 57.5442 61.3063C58.9638 58.1267 59.0184 53.1453 57.708 48.7293C57.6353 48.4819 57.5078 48.1287 57.435 47.9343C57.3622 47.74 56.9437 46.5389 56.5251 45.2847C56.0883 44.0128 55.6334 42.741 55.506 42.4584C55.1784 41.7695 53.6497 36.9647 53.5405 36.2758C53.4859 35.9756 53.3039 35.1453 53.1401 34.4211C52.8126 32.9019 52.7943 28.7685 53.1219 28.5565C53.2311 28.4858 53.2675 28.3799 53.1947 28.3269C53.1219 28.2562 52.9582 28.3975 52.7943 28.6272Z" fill="#FF4500"/>
</g>
<defs>
<clipPath id="clip0_2_2236">
<rect width="69" height="76" fill="white"/>
</clipPath>
</defs>
</svg>
