<svg width="70" height="67" viewBox="0 0 70 67" fill="none" xmlns="http://www.w3.org/2000/svg">
<g clip-path="url(#clip0_2_2239)">
<path d="M41.8375 0.096165C41.7386 0.176305 33.394 0.368644 27.8035 0.416728C24.5713 0.448785 21.7513 0.528917 21.5369 0.593029C20.8937 0.785364 19.6404 1.77911 19.0632 2.54845C18.3541 3.4941 17.4636 5.09689 17.4636 5.40142C17.4636 5.52964 17.3317 5.93035 17.1503 6.31502C16.9854 6.68366 16.639 7.53315 16.3917 8.1903C16.1443 8.84745 15.732 9.82517 15.4682 10.3541C15.2208 10.883 14.9569 11.492 14.9075 11.7164C14.8415 11.9409 14.6931 12.3255 14.5776 12.598C14.4787 12.8544 14.2478 13.5116 14.0829 14.0405C13.918 14.5694 13.7201 15.0663 13.6707 15.1624C13.6046 15.2426 13.2749 16.044 12.945 16.9255C12.5987 17.8071 12.2524 18.6565 12.1699 18.8008C12.0875 18.9611 12.0215 19.2015 12.0215 19.3297C12.0215 19.4579 11.9556 19.5701 11.8566 19.5701C11.7741 19.5701 11.6917 19.6983 11.6917 19.8426C11.6917 20.0029 11.5763 20.3395 11.4443 20.5959C11.3124 20.8363 11.1969 21.189 11.1969 21.3492C11.1969 21.5256 11.065 21.9583 10.8836 22.343C10.7187 22.7116 10.4878 23.2726 10.3724 23.5771C10.257 23.8816 10.1086 24.2824 10.0426 24.4587C9.44888 25.9332 9.317 26.2858 9.11904 26.7026C9.00361 26.959 8.85521 27.3918 8.78927 27.6642C8.72326 27.9207 8.54189 28.4015 8.39349 28.706C8.22857 29.0106 8.04713 29.5716 7.98119 29.9402C7.91525 30.3249 7.79975 30.6615 7.71729 30.7256C7.6349 30.7737 7.56889 30.982 7.56889 31.1904C7.56889 31.3988 7.50295 31.5911 7.43701 31.6232C7.35455 31.6392 7.12362 32.1681 6.92575 32.7932C6.71137 33.4023 6.44751 34.1235 6.33207 34.396C6.11769 34.8448 5.07875 37.826 4.48506 39.6852C4.35313 40.1179 4.10577 40.7751 3.94085 41.1277C3.79244 41.4803 3.4956 42.2657 3.2977 42.8908C3.09981 43.4999 2.88542 44.125 2.83595 44.2532C2.78648 44.3814 2.72052 44.5256 2.70402 44.5737C2.52262 45.2309 2.24227 45.9681 1.94543 46.5292C1.86297 46.6895 1.79701 46.9459 1.79701 47.1222C1.79701 47.2825 1.53315 48.2441 1.21982 49.2379C0.889994 50.2477 0.560174 51.3215 0.477718 51.6261C-0.0664894 53.5654 -0.148945 56.7069 0.246842 60.4414C0.378771 61.7236 0.560174 63.4547 0.64263 64.2882C0.741573 65.1216 0.824033 65.8749 0.857017 65.939C0.906486 66.0993 26.5832 66.0993 31.4151 65.955L34.7463 65.8428L34.8618 63.647C35.0431 60.169 35.0267 47.1543 34.8452 46.9779C34.7298 46.8657 30.4751 46.8337 22.6418 46.8497L10.6198 46.8978L10.5043 47.5389C10.4549 47.8915 10.3229 48.5807 10.2404 49.0616C10.158 49.5424 10.1086 49.9912 10.158 50.0553C10.191 50.1355 14.7921 50.1836 20.366 50.1836C25.94 50.1836 30.4916 50.2316 30.5081 50.2957C30.5081 50.3759 30.5411 50.5682 30.574 50.7445C30.607 50.9208 30.6565 51.7863 30.673 52.6679L30.706 54.2707L29.4856 54.3668C28.8095 54.4309 23.6807 54.479 18.0902 54.495L7.89873 54.5111V58.0693L18.3376 57.9731C24.0601 57.909 29.2053 57.8609 29.7495 57.8289L30.739 57.7968L30.6895 58.9188C30.673 59.5278 30.5575 60.5536 30.4751 61.1787L30.2937 62.3167L20.1846 62.4289C14.6436 62.493 8.83869 62.493 7.28854 62.4289L4.48506 62.3167L4.36962 61.355C4.32016 60.8261 4.27068 59.656 4.27068 58.7745C4.27068 57.3641 4.36962 56.3222 4.83138 52.5877C4.94682 51.7222 5.17769 50.6323 5.40856 49.863C5.49102 49.5584 5.68891 48.8372 5.83734 48.2602C5.96926 47.6831 6.20014 46.8497 6.34856 46.417C6.48049 45.9682 6.66189 45.3591 6.76084 45.0546C6.92575 44.4936 7.15666 43.9166 7.40397 43.4358C7.46998 43.3076 7.66787 42.6504 7.81627 41.9933C7.98119 41.3521 8.16256 40.727 8.22857 40.6469C8.29451 40.5508 8.44291 40.1981 8.55834 39.8455C8.65732 39.4929 8.85521 38.98 8.97064 38.7235C9.08607 38.4511 9.44888 37.5215 9.79524 36.6399C10.125 35.7584 10.5043 34.7807 10.6198 34.4761C10.7517 34.1716 10.9661 33.4824 11.1145 32.9535C11.2794 32.4245 11.5268 31.7033 11.6917 31.3507C11.8401 30.9981 12.071 30.3089 12.2029 29.8281C12.3183 29.3472 12.4668 28.8664 12.5327 28.7862C12.5987 28.69 12.6977 28.3534 12.7636 28.0168C12.8296 27.6963 12.945 27.3757 13.0275 27.3276C13.11 27.2796 13.1759 27.0712 13.1759 26.8468C13.1759 26.6384 13.2584 26.4622 13.3408 26.4622C13.4397 26.4622 13.5057 26.35 13.5057 26.2217C13.5057 26.0935 13.6541 25.5325 13.8191 24.9876C13.984 24.4266 14.2478 23.545 14.4127 23.0162C14.5611 22.4872 14.7426 21.8942 14.8415 21.6858C15.1549 20.9325 15.3033 20.5639 15.8969 19.0091C16.2268 18.1276 16.639 17.1019 16.8039 16.7492C16.9688 16.3806 17.1667 15.8036 17.2327 15.467C17.3317 14.922 17.9748 13.1109 18.4696 11.9088C18.552 11.7164 18.6839 11.3959 18.7664 11.1875C19.6404 9.0077 20.0857 8.01396 20.5475 7.16451C21.405 5.54567 22.4109 4.63208 23.8456 4.19933C24.8186 3.89479 46.6693 3.84671 47.3456 4.13521C47.8238 4.34358 47.9227 4.4718 49.6707 7.06836C50.9406 8.95963 51.8146 10.6746 53.002 13.5596C53.2494 14.1687 53.5132 14.8259 53.5792 15.0022C53.6617 15.1785 53.843 15.6754 53.9914 16.1241C54.1563 16.5569 54.3378 17.0698 54.4037 17.2461C54.5191 17.5346 54.6016 17.8231 54.816 18.7688C54.8655 18.9931 55.2118 20.2273 55.5581 21.4133C56.0858 23.1924 56.8939 26.0455 57.2402 27.3437C57.3392 27.6963 57.5205 28.3054 57.636 28.69C57.7679 29.0907 57.8668 29.5395 57.8668 29.6998C57.8668 30.0043 58.7903 32.9375 59.0048 33.3542C59.0872 33.4984 59.2026 33.835 59.2521 34.1235C59.3181 34.396 59.45 34.6685 59.5325 34.7166C59.6149 34.7807 59.6809 34.9569 59.6809 35.1173C59.6809 35.2775 59.7963 35.6141 59.9283 35.8706C60.324 36.6078 61.0002 38.403 61.0002 38.7395C61.0002 38.8999 61.1156 39.2525 61.2476 39.5089C61.3795 39.7493 61.4949 40.0218 61.4949 40.1019C61.4949 40.1981 61.6104 40.4385 61.7753 40.6629C61.9237 40.8873 62.204 41.5124 62.4019 42.0574C62.7482 43.019 63.0121 43.6441 63.6553 44.9745C63.8201 45.3271 64.0016 45.8239 64.0511 46.0964C64.117 46.3529 64.216 46.7215 64.2984 46.8978C64.6777 47.7473 65.7826 51.5299 66.03 52.764C66.4752 54.9919 66.1949 60.2491 65.6012 60.8422C65.5187 60.9223 65.4528 61.1467 65.4528 61.355C65.4528 61.9801 64.8591 62.0763 60.3406 62.0923C56.3002 62.1243 45.2512 61.8038 42.695 61.5955L41.4582 61.4832L41.3592 58.2456L41.887 58.1334C42.1673 58.0853 47.1146 58.0373 52.8536 58.0373H63.3089V56.4344C63.3089 55.5529 63.2595 54.8316 63.1935 54.8316C63.111 54.8316 62.6328 54.7675 62.1051 54.6714C61.5938 54.5912 57.735 54.447 53.5297 54.3668C46.6859 54.2065 44.1957 54.0623 42.1178 53.7257L41.4582 53.6135V50.1034H46.8178C50.0336 50.1034 53.2494 50.1996 54.849 50.3278C57.1248 50.5201 57.7844 50.5201 59.4665 50.3278C61.264 50.1195 61.4125 50.0713 61.363 49.7829C61.33 49.6065 61.2476 48.9494 61.1651 48.3082C61.0826 47.6671 60.9837 47.0741 60.9177 46.9779C60.8518 46.8657 57.9163 46.8177 51.9465 46.8177C43.0084 46.8177 41.9035 46.8657 37.8302 47.5229C37.5168 47.571 37.5003 47.7313 37.4014 51.3215C37.2859 55.008 37.4838 63.9836 37.6817 65.2498L37.7971 65.8909H41.2273C44.3606 65.8909 49.0276 66.1153 54.2058 66.532C58.6419 66.8847 64.6282 66.6603 68.3388 66.0192C69.2952 65.8428 69.4931 65.7627 69.5096 65.4902C69.5261 65.3139 69.625 64.7049 69.7075 64.1278C70.1694 61.323 70.07 56.3543 69.5096 52.8281C69.2458 51.2414 68.5036 48.0037 68.2398 47.3787C68.0419 46.8818 67.4647 44.9263 67.1843 43.7723C67.0359 43.1953 66.8546 42.5863 66.7885 42.41C66.7061 42.2337 66.5742 41.9131 66.4752 41.6887C66.3763 41.4643 66.2609 41.1437 66.2114 40.9675C66.1124 40.5828 65.1889 38.0503 64.9746 37.6016C64.8921 37.4253 64.6777 36.9604 64.4963 36.5598C64.2984 36.1591 64.1005 35.6141 64.0345 35.3577C63.8696 34.5883 63.243 32.7932 63.111 32.7451C63.0286 32.7131 62.9791 32.5688 62.9791 32.4085C62.9791 32.2643 62.9131 32.0719 62.8307 31.9758C62.7647 31.8957 62.4184 31.0782 62.0886 30.1486C61.462 28.4336 61.2476 27.8886 60.9837 27.3918C60.9013 27.2315 60.8353 26.943 60.8353 26.7507C60.8353 26.5583 60.6539 25.9172 60.4395 25.3402C60.2251 24.7632 59.9612 23.9778 59.8458 23.5771C59.7468 23.1764 59.582 22.7276 59.4995 22.5834C59.4171 22.4231 59.351 22.1506 59.351 21.9904C59.351 21.814 59.2851 21.6378 59.2026 21.5897C59.1202 21.5416 59.0048 21.173 58.9553 20.7882C58.8893 20.4036 58.6914 19.6983 58.4935 19.2336C58.3121 18.7527 57.9988 17.9353 57.7844 17.4064C57.5865 16.8774 57.3227 16.2203 57.2072 15.9638C57.0918 15.6914 56.9434 15.3388 56.8609 15.1624C56.7785 14.9862 56.3827 13.8481 55.9704 12.6301C55.5581 11.4279 55.1623 10.306 55.0799 10.1457C54.9974 10.0014 54.8325 9.55268 54.7336 9.15199C54.2553 7.437 52.2929 3.7826 51.7486 3.57424C51.6662 3.54218 51.6002 3.44601 51.6002 3.36587C51.6002 2.96518 50.4129 1.84321 49.0606 0.961678L47.5929 0L44.7399 0.0320527C43.1733 0.0480807 41.8704 0.0641095 41.8375 0.096165Z" fill="#8B4513"/>
<path d="M32.3903 10.5896C31.7164 10.6699 31.0918 10.7984 30.9931 10.8948C30.9109 10.9751 30.7137 11.0554 30.5657 11.0554C30.3027 11.0554 28.1493 12.0513 27.1959 12.6135C26.9329 12.7741 26.6042 13.0311 26.4891 13.1757C26.374 13.3363 26.1768 13.4648 26.0782 13.4648C25.8644 13.4648 23.6618 15.5529 23.6618 15.7617C23.6618 15.826 23.3823 16.2918 23.0207 16.8058C21.607 18.8458 20.555 21.3355 20.2098 23.4236C20.1111 24.0822 19.9468 24.9335 19.8646 25.3029C19.5523 26.7004 19.7824 29.7041 20.3578 31.5674C20.4399 31.8565 20.4892 32.0974 20.4399 32.0974C20.3084 32.0974 21.229 33.9607 21.5412 34.282C21.7057 34.4587 21.8536 34.6835 21.8536 34.7799C21.8536 34.8763 21.9193 34.9887 21.9851 35.0208C22.0508 35.0369 22.5111 35.5348 22.9878 36.1131C23.9247 37.2214 25.3385 38.5225 25.6015 38.5225C25.7001 38.5225 25.7987 38.5867 25.8316 38.667C25.8973 38.8437 27.4918 39.8236 28.2973 40.1769C29.6452 40.7873 32.5219 41.2853 34.7575 41.3013C35.9409 41.3013 37.0423 41.2853 37.2231 41.2692C38.045 41.1888 41.6942 40.4179 42.1381 40.2251C44.1764 39.3577 44.16 39.3577 44.275 38.8116C44.3244 38.5225 44.4887 38.0727 44.6202 37.8157C44.7682 37.5587 44.8503 37.3339 44.8175 37.3017C44.8011 37.2696 44.4394 37.3499 44.0449 37.4784C43.6339 37.5908 42.9764 37.7836 42.5655 37.8799C42.1545 37.9764 41.5299 38.137 41.1683 38.2173C39.8861 38.5385 38.8505 38.6991 37.3875 38.8277C35.7601 38.9883 32.8999 38.8758 32.7684 38.651C32.7191 38.5867 32.4725 38.5225 32.2095 38.5225C31.9465 38.5225 31.6835 38.4422 31.6342 38.3619C31.5849 38.2655 31.3877 38.2012 31.2232 38.2012C30.2863 38.2012 27.0973 36.3219 26.4562 35.4063C26.3247 35.1975 25.8973 34.7317 25.5193 34.3462C25.1248 33.9607 24.5165 33.0451 24.1549 32.3384C23.6125 31.2621 23.448 30.7482 23.3166 29.5114C23.1358 27.9372 23.218 25.4154 23.5138 24.0019C23.9084 22.1386 26.5056 17.8981 27.8863 16.8701C29.5795 15.585 30.6808 14.9104 31.5027 14.5892C32.0287 14.3964 32.604 14.1715 32.7849 14.1073C33.4424 13.8342 34.3136 13.7378 36.8779 13.6736C38.571 13.6254 39.5574 13.6736 39.6724 13.7861C39.7545 13.8664 40.034 13.9466 40.2806 13.9466C40.5271 13.9466 40.7902 14.0109 40.8395 14.1073C40.8888 14.1876 41.0532 14.2679 41.1683 14.2679C41.497 14.2679 43.1408 15.312 44.1764 16.1794C45.2778 17.111 46.8394 19.4722 47.3161 20.9018C48.2366 23.7449 47.9736 27.118 46.6586 28.901C46.4941 29.1419 46.3462 29.3828 46.3462 29.4471C46.3462 29.8326 44.4887 31.7601 44.0942 31.7762C43.9956 31.7762 43.8805 31.8404 43.8477 31.9047C43.7161 32.2099 41.4641 33.0772 40.3792 33.2379C38.045 33.5591 35.9409 33.1254 33.9684 31.8886C32.867 31.1979 32.6533 30.8927 32.3082 29.5595C31.9465 28.1299 31.9794 27.0056 32.4561 25.5278C32.8013 24.4516 33.015 24.1304 33.7383 23.3915C34.6917 22.4599 36.0889 21.8174 37.1902 21.8174C37.9135 21.8174 39.3601 22.4759 39.6066 22.9257C39.6888 23.1024 39.771 23.793 39.771 24.4677C39.771 25.7206 39.508 26.5076 39.0478 26.6843C38.9162 26.7325 38.1601 26.604 37.3546 26.4113C36.5656 26.2025 35.6286 25.9937 35.2834 25.9455C34.7081 25.8651 34.6588 25.8812 34.4287 26.4273C34.0506 27.3108 34.1163 27.8409 34.6917 28.4834C35.7108 29.6077 37.5519 30.0575 39.6888 29.7041C41.382 29.4149 42.3354 28.7243 42.8285 27.4393C43.1737 26.4916 43.1737 23.5521 42.8121 22.5241C42.286 21.0303 41.2175 19.8898 39.6395 19.151C38.6368 18.7012 38.2423 18.6048 37.3218 18.6048C33.7547 18.6048 30.8451 19.8417 29.7274 21.8174C29.3493 22.492 29.037 22.9899 28.9219 23.1024C28.7411 23.2791 28.4452 24.034 28.1822 24.9978C27.7549 26.6201 27.6891 28.0015 28.0179 29.5274C28.3466 31.1016 28.5767 31.6637 29.4644 32.9327C30.0233 33.7519 30.2534 33.9285 31.6013 34.571C34.4944 35.9364 35.7272 36.1934 38.7519 36.0649C40.0504 36.0167 41.382 35.8561 41.908 35.7115C42.4011 35.5669 42.9271 35.4385 43.0751 35.3902C45.6723 34.812 48.1215 33.1576 48.9927 31.4388C50.505 28.4512 50.8502 26.861 50.7352 23.263C50.6694 20.5645 50.505 19.9059 49.4201 17.9623C48.6311 16.5649 46.6586 14.3161 45.6229 13.6415C45.4093 13.4969 44.834 13.1275 44.3573 12.8062C43.2066 12.0673 41.6778 11.3606 40.2313 10.9109C38.7848 10.4611 34.9383 10.3005 32.3903 10.5896Z" fill="#8B4513"/>
</g>
<defs>
<clipPath id="clip0_2_2239">
<rect width="70" height="67" fill="white"/>
</clipPath>
</defs>
</svg>
