<svg width="73" height="71" viewBox="0 0 73 71" fill="none" xmlns="http://www.w3.org/2000/svg">
<g clip-path="url(#clip0_2_2234)">
<path d="M33.8743 0.129605C29.6534 0.439417 24.6247 1.80912 20.4367 3.79844C16.9248 5.46164 12.3742 8.80436 9.30743 11.9514C7.75756 13.533 5.76251 16.0279 5.26787 16.9899C5.11948 17.2508 4.85568 17.74 4.65782 18.0498C4.08074 19.0118 3.27284 20.6751 2.71225 22.0448C2.43196 22.7622 2.11869 23.4797 2.03625 23.6264C1.95381 23.7895 1.88786 24.0341 1.88786 24.1645C1.88786 24.295 1.82191 24.5396 1.72298 24.7026C1.64054 24.8493 1.39323 25.7462 1.16239 26.6919C0.783173 28.3552 0.65127 28.9421 0.222586 31.3391C-0.0741952 32.9371 -0.0741952 40.0954 0.222586 41.6119C1.07995 46.0308 1.59108 48.0527 2.08571 49.1941C2.28357 49.6507 2.39898 49.9605 2.76171 50.9062C3.42123 52.6509 4.95461 55.4556 6.19119 57.1677C6.90017 58.146 9.91742 61.5377 10.2307 61.717C10.3461 61.7822 10.7583 62.1247 11.154 62.4997C11.896 63.1846 13.5778 64.4564 14.2043 64.7989C16.7269 66.2012 19.9421 67.6524 21.5084 68.0926C21.9206 68.2068 22.3822 68.3698 22.5306 68.4514C22.6956 68.5329 22.9594 68.5981 23.1242 68.5981C23.2726 68.5981 24.1135 68.7775 24.9709 68.9895C27.1802 69.5275 28.8125 69.8047 32.4728 70.2613C34.6492 70.5386 43.2394 70.5549 44.2617 70.2776C44.6739 70.1635 45.5312 69.9515 46.1578 69.8047C47.246 69.5602 50.8733 68.4351 51.5987 68.1252C51.7801 68.0437 52.6375 67.7013 53.4948 67.3752C54.3522 67.0328 55.1436 66.7067 55.2261 66.6414C55.325 66.5762 55.9186 66.2501 56.5451 65.9076C64.7231 61.5377 69.587 54.8686 71.7799 45.0361C72.1426 43.4544 72.4889 41.5793 72.8022 39.4921C73.0657 37.7474 73.0657 30.7032 72.8022 29.2193C72.6868 28.5834 72.4889 27.4583 72.3569 26.6919C72.1096 25.257 71.5491 22.8437 71.3017 22.1263C70.2135 18.8814 68.9605 16.1746 67.8228 14.593C67.6414 14.3647 67.5095 14.1201 67.5095 14.0712C67.5095 13.8918 66.6357 12.7667 65.6299 11.6416C63.2887 9.03265 58.4247 5.3638 55.4734 3.99411C52.621 2.67333 50.0159 1.74389 47.5592 1.15688C46.9656 1.02643 46.1908 0.847066 45.828 0.749231C43.0086 0.0806865 38.0128 -0.180208 33.8743 0.129605ZM44.2617 3.76583C46.2732 4.14087 47.5263 4.43437 48.1363 4.67896C48.3177 4.74418 49.0267 5.00507 49.7191 5.23336C52.4726 6.14649 55.1931 8.0217 56.4297 9.86422C58.5896 13.0439 59.2656 16.6149 58.2598 19.3053C57.7817 20.5283 56.5286 21.8328 55.1766 22.4851C54.1214 23.0068 53.9895 23.0231 52.0934 23.0231C50.1643 23.0231 49.851 22.9742 48.4166 22.3383C47.5263 21.9632 46.6524 20.2674 45.762 17.2345C45.5642 16.566 45.3334 15.7833 45.2345 15.5061C45.152 15.2288 45.086 14.7071 45.086 14.3321C45.086 13.7613 45.1685 13.5983 45.6302 13.2721C46.504 12.62 48.0044 12.1797 49.3894 12.1797C51.4833 12.1797 52.9508 12.9135 54.1544 14.5604C54.6655 15.2615 54.7315 15.4571 54.7315 16.4192C54.7315 18.5879 53.1486 20.0065 51.6152 19.1912C51.0052 18.8814 50.8073 18.2618 51.0217 17.3323C51.1206 16.8921 51.1536 16.3866 51.0877 16.1909C50.7249 15.0332 49.3729 14.7234 48.532 15.6202C48.1034 16.0768 48.0539 16.2399 48.0539 17.1693C48.0539 17.7237 48.1363 18.4086 48.2517 18.6532C49.1751 20.7729 51.5493 21.6697 53.9401 20.8055C55.5559 20.2185 56.5946 18.9792 56.9573 17.1856C57.452 14.7886 55.6218 11.5926 53.0662 10.386C51.1206 9.47292 47.3779 9.58703 45.1685 10.6306C44.5255 10.9241 43.8989 11.2991 43.7835 11.4296C43.4208 11.8536 43.1569 11.7394 42.0688 10.6959C39.8264 8.51087 36.8916 6.65198 33.9403 5.52687C32.5882 5.02138 30.247 4.5159 29.2083 4.5159C28.5323 4.5159 28.4004 4.255 28.9774 4.04303C29.1753 3.9615 30.3459 3.81474 31.566 3.71691C32.7861 3.61907 34.0557 3.50493 34.3689 3.47231C35.8199 3.30926 42.9261 3.52124 44.2617 3.76583ZM30.4943 7.63033C31.0384 7.72813 31.6319 7.85861 31.8133 7.94012C31.9947 8.0054 32.4728 8.1521 32.885 8.26628C33.9073 8.52717 35.7374 9.45662 36.9246 10.3045C40.387 12.7504 42.9096 16.3866 43.6846 20.0228C44.0143 21.6045 44.0143 24.7352 43.6846 25.681C42.7118 28.4367 40.1891 31.0293 37.7655 31.7794C36.6772 32.1055 35.0779 32.399 34.3195 32.399C33.0829 32.399 31.4836 31.812 30.7746 31.0945C30.1646 30.4912 29.9996 30.1488 29.0598 27.5072C28.796 26.7408 28.5158 25.9745 28.4333 25.7951C28.0705 24.9961 27.6089 23.1698 27.6089 22.5503C27.6089 21.7676 28.0211 21.0175 28.796 20.4468C31.0219 18.7836 34.4184 18.5553 36.7597 19.9087C37.65 20.4305 38.6063 21.4903 39.0185 22.4198C39.7605 24.0667 39.101 26.105 37.5346 26.9528C36.7762 27.3768 35.622 27.4746 35.4077 27.1322C35.3417 27.0343 35.2758 26.2517 35.2758 25.4364C35.2758 23.9689 35.2593 23.9199 34.7481 23.4144C34.3525 23.0068 34.0887 22.8926 33.594 22.8926C32.7366 22.8926 32.3245 23.1372 31.9782 23.8547C31.6319 24.5885 31.6979 26.1865 32.1266 26.9854C32.918 28.5182 34.5503 29.4639 36.3475 29.4639C37.683 29.4639 38.5404 29.1378 39.6286 28.2084C41.1784 26.9039 41.7061 24.507 40.9641 22.11C40.5189 20.6262 39.2823 18.7999 38.0787 17.8378C36.7927 16.7943 35.8364 16.5008 33.7094 16.5171C30.6427 16.5334 28.2849 17.4139 26.4053 19.2727L25.4985 20.1696L24.3608 19.4032C22.5471 18.164 20.651 17.4139 18.5406 17.0877C16.562 16.7617 12.3577 16.941 11.2035 17.3975C11.0221 17.4628 10.544 17.6095 10.1318 17.7237C9.71959 17.8378 9.0601 18.0335 8.66437 18.1477C7.75756 18.4249 7.65858 18.4249 7.65858 18.164C7.65858 17.9357 10.9562 14.6582 12.605 13.2395C14.0229 12.0329 16.6774 10.2393 18.1284 9.52183C19.9916 8.60868 22.135 7.90752 23.8992 7.63033C26.0426 7.28793 28.5158 7.28793 30.4943 7.63033ZM62.2334 12.9624C65.1518 16.5823 67.3117 20.6262 68.268 24.2298C68.5977 25.4201 68.5153 25.5831 67.7239 25.3385C66.7511 25.0613 61.3101 25.1265 59.3975 25.4527C55.3744 26.1376 50.5765 27.9964 47.4768 30.0673C47.2955 30.1814 46.8502 30.4749 46.4875 30.7032C44.2287 32.1708 41.6401 34.3394 37.8314 37.9594C35.4736 40.1932 31.7803 43.324 31.5001 43.324C31.4506 43.324 31.1044 43.536 30.7086 43.7969C29.4391 44.6284 27.2627 45.6557 25.548 46.2101C22.4317 47.2374 20.5191 47.5635 17.5513 47.5635C12.7039 47.5472 9.27443 46.5362 6.17471 44.2045C3.96533 42.5249 3.81694 42.2804 3.28933 39.2475C2.82767 36.6385 3.10796 30.8499 3.76748 28.9747C3.91587 28.5671 4.03128 28.1269 4.03128 27.9964C4.03128 27.866 4.36104 27.0833 4.77324 26.2517C6.55393 22.6318 10.6594 20.1859 15.0122 20.1696C16.4631 20.1696 18.9198 20.4305 19.4474 20.6588C19.6288 20.724 20.0245 20.887 20.3378 21.0012C21.7723 21.5393 23.6684 23.2024 24.773 24.8983C26.7845 27.9801 27.2627 30.7684 26.4713 34.5188C25.9272 37.0788 24.0311 39.8998 21.9371 41.2694C19.7937 42.6717 18.656 43.0631 16.7269 43.0468C15.5068 43.0468 15.1771 42.9815 14.2373 42.5413C13.6272 42.2641 12.9017 41.8402 12.6215 41.5956C11.9619 41.0574 10.7583 39.3943 10.3296 38.4322C9.60417 36.8179 9.55468 36.557 9.55468 34.7633C9.55468 33.0186 9.57118 32.9371 10.1482 31.9099C10.8243 30.7032 11.9125 29.7738 13.1491 29.3661C14.3857 28.9584 16.8588 29.1052 18.046 29.6596C20.8324 30.9315 21.8382 34.0459 20.1729 36.2961C19.4309 37.3234 18.0955 37.7474 17.8316 37.0625C17.7821 36.932 17.8151 36.3124 17.9141 35.6765C18.1449 34.2742 17.98 33.785 17.1062 33.4426C15.0122 32.562 13.2315 35.1547 14.4516 37.3071C14.633 37.6169 15.1606 38.1387 15.6222 38.4485C16.4466 38.9866 16.5456 39.0029 18.046 39.0029C19.4639 39.0029 19.6947 38.954 20.3872 38.5626C22.4482 37.356 23.2726 35.0079 22.5801 32.3175C21.8712 29.5455 19.8102 27.5398 17.0072 26.8713C14.8473 26.3659 12.2917 27.0833 10.1318 28.7954C8.94469 29.7412 8.21922 30.6706 7.44425 32.236C6.94963 33.2469 6.91666 33.3774 6.94963 35.2036C6.96612 37.4049 7.31234 38.7257 8.26864 40.2095C10.544 43.7806 14.4846 45.6557 18.5406 45.1339C22.5306 44.6121 25.2346 42.6391 27.7903 38.4322C28.6806 36.9646 29.4061 35.4645 29.538 34.8123C29.6699 34.1601 29.9502 34.0949 30.6757 34.5188C32.5882 35.7091 36.1661 35.5134 39.2823 34.0786C42.2501 32.7088 44.9706 29.9042 46.7513 26.3169L47.3119 25.2081L48.0539 25.3059C49.7851 25.5342 52.9013 25.5668 53.6432 25.3875C56.1494 24.7352 57.2541 24.1482 58.6061 22.7948C60.6506 20.7566 61.2771 18.914 61.2771 14.9843C61.2771 13.4678 61.1947 12.408 61.0957 12.2775C60.8979 12.0329 61.0133 11.8372 61.2936 11.9514C61.4091 12.0003 61.8212 12.4569 62.2334 12.9624ZM68.0372 29.3335C68.4658 29.415 68.8946 29.5944 68.9935 29.7085C69.2408 30.0184 69.587 31.6979 69.7189 33.3284L69.8344 34.6818H66.5697C62.4808 34.6818 60.5682 34.9753 57.287 36.1005C53.4783 37.4049 50.593 39.3616 45.3334 44.2371C43.7835 45.6557 42.0852 47.1885 41.5412 47.6451C40.9971 48.0853 40.5189 48.5092 40.4694 48.5581C40.3045 48.7375 37.7325 50.629 36.7597 51.265C34.4843 52.7814 32.1101 54.0206 29.9172 54.8523C29.3237 55.0805 28.6971 55.3251 28.5158 55.3904C25.3171 56.6785 19.2496 57.3471 15.952 56.7764C9.52176 55.6513 8.13673 54.7055 5.0865 49.4061C4.57538 48.5092 4.75675 48.3951 5.92739 48.868C6.10875 48.9332 6.52095 49.0963 6.83422 49.1941C7.14749 49.3083 7.64215 49.4876 7.9059 49.6018C8.36763 49.7975 8.74679 49.8953 10.3791 50.3192C10.7418 50.4007 11.896 50.5964 12.9347 50.7595C15.1771 51.0856 19.8102 50.9878 21.8382 50.5801C22.5142 50.4496 23.355 50.2866 23.7013 50.2377C24.0475 50.1724 24.3608 50.0583 24.4103 49.9931C24.4597 49.9116 24.6411 49.8464 24.806 49.8464C25.1522 49.8464 27.3946 48.9332 28.9279 48.1505C32.6047 46.2916 34.6327 44.7589 41.5577 38.5789C45.5972 34.9916 49.1421 32.3501 51.4009 31.2902C54.8304 29.6596 56.001 29.2846 57.9466 29.1378C60.0405 28.991 67.0644 29.1215 68.0372 29.3335ZM67.7568 38.1224C68.3999 38.2202 69.0924 38.3833 69.3067 38.4811C69.6694 38.6604 69.6859 38.7257 69.6035 39.7367C69.554 40.3237 69.4386 41.1227 69.3562 41.5303C69.2572 41.938 69.0924 42.8348 68.977 43.536C68.7296 45.0035 68.5977 45.1176 67.1468 45.1176C65.4815 45.1176 62.085 45.8351 60.1394 46.6014C58.4412 47.27 55.9516 48.5745 54.649 49.4876C51.7471 51.5259 48.2517 54.412 45.3334 57.1677C42.6294 59.7277 40.6344 61.2605 38.9856 62.0268C38.2436 62.3856 36.9081 62.9726 35.8529 63.4292C33.8743 64.2934 31.0384 64.6847 27.0318 64.6847C23.0912 64.6847 20.618 64.1629 17.37 62.6791C16.6939 62.3856 16.0839 62.0921 15.985 62.0594C15.0122 61.6681 12.9677 60.2006 13.1326 60.0212C13.182 59.9886 13.9734 60.0375 14.9132 60.1353C17.7162 60.4615 23.0912 60.0538 26.125 59.3038C27.6089 58.945 28.2025 58.7657 28.3344 58.6352C28.4333 58.5537 28.6147 58.4885 28.7631 58.4885C29.1753 58.4885 31.7638 57.4286 33.8248 56.4339C38.0128 54.412 42.3656 51.2487 47.2295 46.683C50.0324 44.0578 53.0662 41.5303 53.3959 41.5303C53.4619 41.5303 53.9071 41.2857 54.3687 40.9759C56.7265 39.4921 60.8484 38.0572 63.2227 37.8941C64.3274 37.8289 66.4543 37.9267 67.7568 38.1224ZM66.9984 48.6397C67.4765 48.7375 67.526 48.8028 67.4271 49.1778C67.2622 49.8627 65.6299 52.9771 64.7066 54.3467C62.2829 57.9667 58.9029 61.1301 55.2755 63.1357C51.0052 65.5163 47.0811 66.7393 41.9534 67.2937C40.3705 67.473 38.6228 67.6035 38.0787 67.6035H37.0895L37.5841 67.2122C37.8644 66.9839 38.4084 66.6577 38.8207 66.4621C40.4859 65.6957 44.4431 62.7117 46.57 60.6082C47.4273 59.7603 51.6317 55.8795 52.3407 55.2762C52.7364 54.9338 53.4619 54.2978 53.9565 53.8739C54.4511 53.4337 55.1601 52.8792 55.5393 52.6509C55.9186 52.4063 56.4791 52.015 56.7925 51.7868C57.3035 51.4117 59.447 50.3355 61.0957 49.6181C61.9531 49.2593 63.5854 48.8517 64.855 48.7049C66.4048 48.5255 66.4213 48.5255 66.9984 48.6397Z" fill="#1B83E8"/>
</g>
<defs>
<clipPath id="clip0_2_2234">
<rect width="73" height="71" fill="white"/>
</clipPath>
</defs>
</svg>
