<svg width="14" height="20" viewBox="0 0 14 20" fill="none" xmlns="http://www.w3.org/2000/svg">
<path d="M13.125 8.125H12.5V6.25C12.5 4.75816 11.9074 3.32742 10.8525 2.27252C9.79758 1.21763 8.36684 0.625 6.875 0.625C5.38316 0.625 3.95242 1.21763 2.89752 2.27252C1.84263 3.32742 1.25 4.75816 1.25 6.25V8.125H0.625C0.45924 8.125 0.300269 8.19085 0.183058 8.30806C0.0658481 8.42527 0 8.58424 0 8.75V18.75C0 18.9158 0.0658481 19.0747 0.183058 19.1919C0.300269 19.3092 0.45924 19.375 0.625 19.375H13.125C13.2908 19.375 13.4497 19.3092 13.5669 19.1919C13.6842 19.0747 13.75 18.9158 13.75 18.75V8.75C13.75 8.58424 13.6842 8.42527 13.5669 8.30806C13.4497 8.19085 13.2908 8.125 13.125 8.125ZM2.5 6.25C2.5 5.08968 2.96094 3.97688 3.78141 3.15641C4.60188 2.33594 5.71468 1.875 6.875 1.875C8.03532 1.875 9.14812 2.33594 9.96859 3.15641C10.7891 3.97688 11.25 5.08968 11.25 6.25V8.125H2.5V6.25Z" fill="#5A5B67"/>
</svg>
