<svg width="25" height="15" viewBox="0 0 25 15" fill="none" xmlns="http://www.w3.org/2000/svg">
<path d="M12.5 0C7.72348 0 3.39189 2.63041 0.195612 6.90288C-0.0652041 7.25292 -0.0652041 7.74194 0.195612 8.09197C3.39189 12.3696 7.72348 15 12.5 15C17.2765 15 21.6081 12.3696 24.8044 8.09712C25.0652 7.74708 25.0652 7.25807 24.8044 6.90803C21.6081 2.63041 17.2765 0 12.5 0ZM12.8426 12.7814C9.67193 12.9822 7.05354 10.3518 7.25299 7.15511C7.41664 4.51956 9.53897 2.38332 12.1574 2.2186C15.3281 2.01784 17.9465 4.64825 17.747 7.84489C17.5782 10.4753 15.4559 12.6115 12.8426 12.7814ZM12.6841 10.3415C10.976 10.4496 9.56454 9.03397 9.67705 7.31469C9.76399 5.89396 10.9095 4.74605 12.321 4.6534C14.0291 4.5453 15.4406 5.96088 15.3281 7.68017C15.236 9.10604 14.0905 10.2539 12.6841 10.3415Z" fill="#5A5B67"/>
</svg>
