<svg width="18" height="14" viewBox="0 0 18 14" fill="none" xmlns="http://www.w3.org/2000/svg">
<path fill-rule="evenodd" clip-rule="evenodd" d="M7.52941 0.166992L8.99935 0.901159L10.4693 0.166992H17.3327V12.667H10.8618L8.99935 13.5987L7.13602 12.667H0.666016V0.166992H7.52941ZM7.13602 1.83366H2.33268V11.0003H7.52941L8.16602 11.3183V2.34867L7.13602 1.83366ZM15.666 1.83366H10.8618L9.83266 2.34848V11.3183L10.4693 11.0003H15.666V1.83366ZM14.8327 6.83366V8.08366H10.666V6.83366H14.8327ZM7.33268 6.83366V8.08366H3.16602V6.83366H7.33268ZM14.8327 3.50033V4.75033H10.666V3.50033H14.8327ZM7.33268 3.50033V4.75033H3.16602V3.50033H7.33268Z" fill="#E9EAEA"/>
</svg>
