<svg width="20" height="20" viewBox="0 0 20 20" fill="none" xmlns="http://www.w3.org/2000/svg">
<path fill-rule="evenodd" clip-rule="evenodd" d="M12.0833 8.74967V4.58301C12.0833 3.43242 11.1506 2.49967 10 2.49967C8.84942 2.49967 7.91667 3.43242 7.91667 4.58301V8.74967C7.91667 9.90026 8.84942 10.833 10 10.833C11.1506 10.833 12.0833 9.90026 12.0833 8.74967ZM10 0.833008C7.92893 0.833008 6.25 2.51194 6.25 4.58301V8.74967C6.25 10.8208 7.92893 12.4997 10 12.4997C12.0711 12.4997 13.75 10.8208 13.75 8.74967V4.58301C13.75 2.51194 12.0711 0.833008 10 0.833008Z" fill="#E9EAEA"/>
<path d="M9.99942 14.167C4.58274 14.167 4.99941 10.0003 4.99941 10.0003C4.99941 10.0003 4.99942 9.16699 4.16609 9.16699C3.33276 9.16699 3.33274 10.0003 3.33274 10.0003C3.33274 10.0003 2.94953 15.3655 9.16608 15.8051V18.3337C9.16608 18.7939 9.53917 19.167 9.99942 19.167C10.4597 19.167 10.8327 18.7939 10.8327 18.3337V15.8051C17.0493 15.3655 16.6661 10.0003 16.6661 10.0003C16.6661 10.0003 16.6661 9.16699 15.8327 9.16699C14.9994 9.16699 14.9994 10.0003 14.9994 10.0003C14.9994 10.0003 15.4161 14.167 9.99942 14.167Z" fill="#E9EAEA"/>
</svg>
