<svg width="25" height="25" viewBox="0 0 25 25" fill="none" xmlns="http://www.w3.org/2000/svg">
<path fill-rule="evenodd" clip-rule="evenodd" d="M12.4993 1.30176C8.0408 1.30176 4.42643 4.91612 4.42643 9.37467V10.1081C4.42643 10.8341 4.21155 11.5438 3.80886 12.1478L2.61239 13.9425C1.22376 16.0255 2.28387 18.8568 4.69907 19.5154C5.48616 19.7301 6.2799 19.9117 7.07825 20.0602L7.08022 20.0655C7.88126 22.2029 10.0222 23.6976 12.4993 23.6976C14.9764 23.6976 17.1173 22.2029 17.9184 20.0655L17.9203 20.0602C18.7187 19.9117 19.5125 19.7301 20.2996 19.5154C22.7148 18.8568 23.7749 16.0255 22.3863 13.9425L21.1898 12.1478C20.7871 11.5438 20.5722 10.8341 20.5722 10.1081V9.37467C20.5722 4.91612 16.9578 1.30176 12.4993 1.30176ZM16.0164 20.3507C13.68 20.6299 11.3185 20.6298 8.98211 20.3506C9.72268 21.4148 11.0108 22.1351 12.4993 22.1351C13.9877 22.1351 15.2759 21.4148 16.0164 20.3507ZM5.98893 9.37467C5.98893 5.77907 8.90374 2.86426 12.4993 2.86426C16.0949 2.86426 19.0097 5.77907 19.0097 9.37467V10.1081C19.0097 11.1426 19.316 12.1538 19.8897 13.0146L21.0862 14.8093C21.8833 16.0048 21.2748 17.6299 19.8885 18.008C15.0508 19.3274 9.94795 19.3274 5.11018 18.008C3.7239 17.6299 3.11542 16.0048 3.91247 14.8093L5.10893 13.0146C5.68273 12.1538 5.98893 11.1426 5.98893 10.1081V9.37467Z" fill="#E9EAEA"/>
</svg>
