<svg width="20" height="21" viewBox="0 0 20 21" fill="none" xmlns="http://www.w3.org/2000/svg">
<g clip-path="url(#clip0_16_1052)">
<path d="M11.9023 0.925781C7.66406 0.925781 4.23047 4.35938 4.23047 8.59766C4.23047 10.4297 4.87109 12.1094 5.94141 13.4297L0.667969 18.7031C0.355469 19.0156 0.355469 19.5195 0.667969 19.832C0.980469 20.1445 1.48438 20.1445 1.79688 19.832L7.07031 14.5586C8.39062 15.6289 10.0703 16.2695 11.9023 16.2695C16.1406 16.2695 19.5742 12.8359 19.5742 8.59766C19.5742 4.35938 16.1367 0.925781 11.9023 0.925781ZM11.9023 14.6758C8.54688 14.6758 5.82422 11.9531 5.82422 8.59766C5.82422 5.24219 8.54688 2.51953 11.9023 2.51953C15.2578 2.51953 17.9805 5.24219 17.9805 8.59766C17.9805 11.9531 15.2578 14.6758 11.9023 14.6758Z" fill="#5A5B67"/>
</g>
<defs>
<clipPath id="clip0_16_1052">
<rect width="20" height="20" fill="white" transform="translate(0 0.5)"/>
</clipPath>
</defs>
</svg>
